# xmcd
#
# Track frame offsets:
#	150
#	21267
#	41062
#	59287
#	78480
#	102095
#	121107
#	134270
#	154465
#	175835
#	186352
#	200207
#	214670
#	231340
#	321760
#
# Disc length: 4740 seconds
#
# Revision: 6
# Processed by: cddbd v1.5.2PL0 Copyright (c) Steve Scherf et al.
# Submitted via: EasyCDDAExtractor 15.3.0.1
#
DISCID=d812820f
DTITLE=Selena - Dreaming Of You (20 Years Of Music)
DYEAR=2002
DGENRE=Pop
TTITLE0=I Could Fall In Love
TTITLE1=Captive Heart
TTITLE2=I'm Getting Used To You
TTITLE3=God's Child (Baila Conmigo)
TTITLE4=Dreaming Of You
TTITLE5=Missing My Baby
TTITLE6=Amor Prohibido
TTITLE7=Wherever You Are (Donde Quiera Que Estes)
TTITLE8=Techno Cumbia
TTITLE9=El Toro Relajo
TTITLE10=Como La Flor
TTITLE11=Tu Solo Tu
TTITLE12=Bidi Bidi Bom Bom
TTITLE13=Spoken Liners Notes By The Band And Family
TTITLE14=Data Track
EXTD=
EXTT0=
EXTT1=
EXTT2=
EXTT3=
EXTT4=
EXTT5=
EXTT6=
EXTT7=
EXTT8=
EXTT9=
EXTT10=
EXTT11=
EXTT12=
EXTT13=
EXTT14=
PLAYORDER=
